<svg width="42" height="42" viewBox="0 0 42 42" fill="none" xmlns="http://www.w3.org/2000/svg">
<path d="M15.75 0C7.06289 0 0 7.06289 0 15.75C0 26.6684 14.216 41.0074 14.823 41.6145C15.0773 41.8687 15.4137 42 15.75 42C16.0863 42 16.4227 41.8687 16.677 41.6145C16.8574 41.434 18.2355 40.0395 20.0895 37.882C19.0312 35.9953 18.3668 33.8133 18.3668 31.4918C18.3668 24.3633 24.1582 18.5965 31.2375 18.3996C31.4016 17.4973 31.4918 16.6113 31.4918 15.7418C31.5 7.06289 24.4371 0 15.75 0ZM15.75 23.625C11.4023 23.625 7.875 20.0977 7.875 15.75C7.875 11.4023 11.4023 7.875 15.75 7.875C20.0977 7.875 23.625 11.4023 23.625 15.75C23.625 20.0977 20.0977 23.625 15.75 23.625Z" fill="#CDDFA0"/>
<path d="M31.5 21C25.7004 21 21 25.7004 21 31.5C21 37.2996 25.7004 42 31.5 42C37.2996 42 42 37.2996 42 31.5C42 25.7004 37.2996 21 31.5 21ZM35.4375 32.8125H32.8125V35.4375C32.8125 36.1594 32.2219 36.75 31.5 36.75C30.7781 36.75 30.1875 36.1594 30.1875 35.4375V32.8125H27.5625C26.8406 32.8125 26.25 32.2219 26.25 31.5C26.25 30.7781 26.8406 30.1875 27.5625 30.1875H30.1875V27.5625C30.1875 26.8406 30.7781 26.25 31.5 26.25C32.2219 26.25 32.8125 26.8406 32.8125 27.5625V30.1875H35.4375C36.1594 30.1875 36.75 30.7781 36.75 31.5C36.75 32.2219 36.1594 32.8125 35.4375 32.8125Z" fill="#FF485A"/>
</svg>
