<svg width="30" height="25" viewBox="0 0 30 25" fill="none" xmlns="http://www.w3.org/2000/svg">
<path d="M0.735426 10.1218L8.52821 1.0841C9.12831 0.385475 9.92892 0 10.7819 0C11.6336 0 12.4342 0.384653 13.0364 1.08327C13.6386 1.7819 13.9702 2.70983 13.9702 3.69859C13.9702 4.68735 13.6379 5.61528 13.0364 6.3139L10.8918 8.80182H26.8118C28.5695 8.80182 30 10.4613 30 12.5004C30 14.5396 28.5695 16.199 26.8118 16.199H10.8925L13.0364 18.6861C13.6393 19.3847 13.9702 20.3135 13.9702 21.3014C13.9702 22.2893 13.6386 23.2189 13.0364 23.9167C12.4349 24.6153 11.6343 25 10.7827 25C9.93104 25 9.13044 24.6153 8.5275 23.9175L0.910427 15.0812C0.734011 14.8708 0.0743961 14.0349 0.00567245 12.7116C-0.0673027 11.2988 0.585224 10.333 0.735426 10.1218ZM1.96822 13.9823L9.53003 22.7545C10.1996 23.5296 11.3672 23.5304 12.0339 22.7545C12.3697 22.3658 12.5532 21.8496 12.5532 21.3006C12.5532 20.7524 12.369 20.2362 12.0346 19.8475L7.47042 14.5544H26.8118V14.5552C27.7881 14.5552 28.583 13.633 28.583 12.5004C28.583 11.367 27.7881 10.4456 26.8118 10.4456H7.47113L12.0346 5.15173C12.3697 4.76296 12.5532 4.24762 12.5532 3.69859C12.5532 3.14955 12.369 2.63422 12.0346 2.24546C11.3636 1.46793 10.196 1.47039 9.53074 2.24463L1.89878 11.0991C1.8081 11.2067 1.41488 11.6949 1.40142 12.4601C1.38512 13.3445 1.88957 13.8985 1.96822 13.9823Z"/>
</svg>
