<svg width="80" height="80" viewBox="0 0 80 80" fill="none" xmlns="http://www.w3.org/2000/svg">
<circle cx="40" cy="40" r="40" fill="#FF485A"/>
<path d="M38.8294 32.4073L25.4793 43.7695C25.1702 44.0323 25 44.3831 25 44.7571C25 45.1312 25.1702 45.482 25.4793 45.7448L26.4622 46.5815C27.1027 47.126 28.1436 47.126 28.7831 46.5815L39.9938 37.0404L51.2169 46.5921C51.5259 46.8549 51.9378 47 52.3771 47C52.8168 47 53.2288 46.8549 53.5381 46.5921L54.5207 45.7554C54.8298 45.4924 55 45.1418 55 44.7677C55 44.3937 54.8298 44.0428 54.5207 43.7801L41.1584 32.4073C40.8484 32.1439 40.4345 31.9992 39.9945 32C39.5528 31.9992 39.1392 32.1439 38.8294 32.4073Z" fill="white"/>
</svg>
