<svg width="45" height="45" viewBox="0 0 45 45" fill="none" xmlns="http://www.w3.org/2000/svg">
<g clip-path="url(#clip0)">
<path d="M36.5105 43.5436L22.5 29.5327L8.48947 43.5436C6.54727 45.4855 3.3986 45.4855 1.4564 43.5436C-0.485466 41.6014 -0.485466 38.4527 1.4564 36.5105L15.4673 22.5L1.4564 8.48947C-0.485466 6.54727 -0.485466 3.3986 1.4564 1.4564C3.3986 -0.485466 6.54727 -0.485466 8.48947 1.4564L22.5 15.4673L36.5105 1.4564C38.4527 -0.485466 41.6014 -0.485466 43.5436 1.4564C45.4855 3.3986 45.4855 6.54727 43.5436 8.48947L29.5327 22.5L43.5436 36.5105C45.4855 38.4527 45.4855 41.6014 43.5436 43.5436C41.6014 45.4855 38.4527 45.4855 36.5105 43.5436Z" fill="#FF485A"/>
</g>
<defs>
<clipPath id="clip0">
<path d="M0 0H45V45H0V0Z" fill="white"/>
</clipPath>
</defs>
</svg>
