<svg width="45" height="42" viewBox="0 0 45 42" fill="none" xmlns="http://www.w3.org/2000/svg">
<path d="M44.7704 38.7222L38.1211 15.384C37.9338 14.6847 37.2782 14.1603 36.4354 13.9854L27.1638 12.2372C26.8828 12.1498 26.6019 12.1498 26.3209 12.2372L18.1731 13.8106C17.8922 13.898 17.6112 13.898 17.3303 13.8106L9.55713 12.2372C8.62058 12.0624 7.40315 12.6743 7.1222 13.5484L0.191765 34.8762C-0.182875 36.1873 0.191765 37.3237 1.22191 37.6733L14.0523 41.8689C14.4269 42.0437 14.8951 42.0437 15.3634 41.8689L28.0065 38.0229C28.3811 37.9355 28.8493 37.9355 29.224 38.0229L42.429 41.8689C44.2085 42.3933 45.4259 40.82 44.7704 38.7222Z" fill="#F3F3F3"/>
<path d="M15.0825 38.7222L2.62677 34.8762L8.80783 13.5484L17.6111 15.4714L15.0825 38.7222Z" fill="#FFBBC0"/>
<path d="M28.3812 34.8762L15.0825 38.7222L17.6111 15.4714L26.8827 13.5484L28.3812 34.8762Z" fill="#FFD15D"/>
<path d="M42.2418 38.7222L28.3812 34.8762L26.8827 13.5484L36.4353 15.4714L42.2418 38.7222Z" fill="#CDDFA0"/>
<path d="M12.4603 0C8.24591 0 4.87442 3.14672 4.87442 7.08013C4.87442 11.6254 12.4603 19.4048 12.4603 19.4048C12.4603 19.4048 20.0461 11.8877 20.0461 7.08013C19.9524 3.14672 16.581 0 12.4603 0Z" fill="#435B6C"/>
<path d="M12.4603 11.0135C14.7878 11.0135 16.6746 9.2525 16.6746 7.08014C16.6746 4.90778 14.7878 3.14673 12.4603 3.14673C10.1327 3.14673 8.24591 4.90778 8.24591 7.08014C8.24591 9.2525 10.1327 11.0135 12.4603 11.0135Z" fill="white"/>
<path d="M35.9671 11.2758C31.7527 11.2758 28.3812 14.4225 28.3812 18.3559C28.3812 22.9012 35.9671 30.6806 35.9671 30.6806C35.9671 30.6806 43.5529 23.1634 43.5529 18.3559C43.4592 14.4225 40.0877 11.2758 35.9671 11.2758Z" fill="#FF485A"/>
<path d="M35.967 22.2893C38.2946 22.2893 40.1814 20.5282 40.1814 18.3559C40.1814 16.1835 38.2946 14.4225 35.967 14.4225C33.6395 14.4225 31.7527 16.1835 31.7527 18.3559C31.7527 20.5282 33.6395 22.2893 35.967 22.2893Z" fill="white"/>
</svg>
