<svg width="42" height="42" viewBox="0 0 42 42" fill="none" xmlns="http://www.w3.org/2000/svg">
<path d="M30.7759 1.81034C26.7231 1.8107 22.9854 3.99761 21 7.53096C19.0146 3.99761 15.2769 1.8107 11.2241 1.81034C5.02547 1.81034 0 7.55996 0 13.7586C0 29.3276 21 40.1897 21 40.1897C21 40.1897 42 29.3276 42 13.7586C42 7.55996 36.9745 1.81034 30.7759 1.81034Z" fill="#FF485A" fill-opacity="0.84"/>
<path d="M2.89655 13.7586C2.89655 8.02351 7.20071 2.68299 12.7534 1.91465C12.2467 1.845 11.7358 1.80999 11.2241 1.81035C5.02547 1.81035 0 7.55996 0 13.7586C0 29.3276 21 40.1897 21 40.1897C21 40.1897 21.5431 39.9079 22.4483 39.3757C17.7039 36.5856 2.89655 26.8338 2.89655 13.7586Z" fill="#FF485A"/>
</svg>
