<svg width="110" height="110" viewBox="0 0 110 110" fill="none" xmlns="http://www.w3.org/2000/svg">
<path d="M92.7169 41.5656C91.7634 28.9596 81.2333 19.0281 68.3835 19.0281C55.5337 19.0281 45.0033 28.9596 44.0501 41.5656C34.6122 44.9376 27.8575 53.9552 27.8575 64.5519C27.8575 78.03 38.7836 88.9558 52.2614 88.9558C58.4414 88.9558 64.0838 86.6574 68.3835 82.8704C72.6832 86.6574 78.3256 88.9558 84.5056 88.9558C97.9836 88.9558 108.909 78.0297 108.909 64.5519C108.909 53.9552 102.155 44.9376 92.7169 41.5656Z" fill="#C3EA21"/>
<path d="M92.7169 41.5656C91.7634 28.9596 81.2333 19.0281 68.3835 19.0281C68.3835 31.1932 68.3835 66.9803 68.3835 82.8704C72.6831 86.6574 78.3256 88.9558 84.5056 88.9558C97.9836 88.9558 108.909 78.0297 108.909 64.5519C108.909 53.9552 102.155 44.9376 92.7169 41.5656Z" fill="#8ADB53"/>
<path d="M83.1254 56.8444L80.1258 51.1397L71.6062 55.6194V46.2024H65.1608V67.3131L56.641 62.8334L53.6413 68.5382L65.1608 74.595V110H71.6062V62.9013L83.1254 56.8444Z" fill="#BA7400"/>
<path d="M25.3722 80.0656C10.7965 80.0656 -0.493931 67.3125 1.27294 52.8443L5.58744 17.5154C6.80861 7.51631 15.2986 0 25.3722 0C35.4458 0 43.9355 7.51631 45.1567 17.5154L49.4712 52.8443C51.2383 67.3125 39.9478 80.0656 25.3722 80.0656Z" fill="#4FC16E"/>
<path d="M25.3722 80.0656C25.3722 63.8071 25.3722 12.7299 25.3722 0C35.4458 0 43.9355 7.51631 45.1567 17.5154L49.4712 52.8443C51.2383 67.3125 39.9478 80.0656 25.3722 80.0656Z" fill="#369151"/>
<path d="M37.1147 52.5516L28.5948 57.0313V40.6598L40.1141 34.6032L37.1147 28.8984L28.5948 33.3781V23.9609H22.1495V45.2046L13.6299 40.7251L10.6303 46.4297L22.1495 52.4865V110H28.5948V64.3133L40.1141 58.2564L37.1147 52.5516Z" fill="#804D00"/>
</svg>
