<svg width="90" height="90" viewBox="0 0 90 90" fill="none" xmlns="http://www.w3.org/2000/svg">
<path d="M45 90C69.84 90 90 69.84 90 45C90 20.16 69.84 0 45 0C20.16 0 0 20.16 0 45C0 69.84 20.16 90 45 90ZM61.0613 41.7862H67.5037V35.3475H73.9463V41.79H80.3325V48.2325H73.9463V54.675H67.5037V48.2325H61.0613V41.7862ZM47.235 28.3575L41.1375 34.275C33.3375 26.6513 18.1612 32.205 18.1612 44.9813C18.1612 62.31 42.7575 63.495 44.8913 49.4812H32.1713V41.7525H53.385C55.7925 54.3375 47.6663 67.5 32.1713 67.5V67.5037C19.6875 67.5037 9.6675 57.4313 9.6675 45C9.67125 24.9825 33.4162 15.5212 47.235 28.3575Z" fill="#F44336"/>
</svg>
