<svg width="123" height="219" viewBox="0 0 123 219" fill="none" xmlns="http://www.w3.org/2000/svg">
<path d="M88 137.719H36C32.4088 137.719 29.5 134.558 29.5 130.656V63.5625C29.5 59.6605 32.4088 56.5 36 56.5H88C91.5912 56.5 94.5 59.6605 94.5 63.5625V130.656C94.5 134.558 91.5912 137.719 88 137.719Z" fill="#48A187"/>
<path d="M55.5 67.0938H36L19.75 84.75L42.5 91.8125V127.125H81.5V91.8125L104.25 84.75L88 67.0938H68.5" fill="#F8EC8F"/>
<path d="M19.75 84.75L14.68 93.0096C13.7473 94.5316 13.25 96.3184 13.25 98.1476C13.25 100.849 14.3355 103.42 16.227 105.178L36 123.594L45.75 113L29.5 98.875L35.22 89.5525" fill="#F8D4BF"/>
<path d="M104.25 84.75L109.32 93.0096C110.253 94.5316 110.75 96.3184 110.75 98.1476C110.75 100.849 109.664 103.42 107.773 105.178L88 123.594L78.25 113L94.5 98.875L88.78 89.5525" fill="#F8D4BF"/>
<path d="M55.5 197.75V218.938H23V211.875C23 207.973 25.9088 204.812 29.5 204.812H42.5V197.75" fill="#DB8C74"/>
<path d="M68.5 197.75V218.938H101V211.875C101 207.973 98.0912 204.812 94.5 204.812H81.5V197.75" fill="#DB8C74"/>
<path d="M81.5 127.125V197.75H68.5L62 141.25L55.5 197.75H42.5V127.125" fill="#C8AF8F"/>
<path d="M52.25 60.0312L62 77.6875L71.75 60.0312" fill="#F6C0A1"/>
<path d="M78.25 67.0938L84.9548 107.17L78.25 113L65.4807 71.3807L67.85 67.0938H78.25Z" fill="#62D7C3"/>
<path d="M45.75 67.0938L39.0453 107.17L45.75 113L58.5193 71.3807L56.15 67.0938H45.75Z" fill="#62D7C3"/>
<path d="M45.75 113L55.5 120.062L45.75 130.656L36 123.594" fill="#F6C0A1"/>
<path d="M78.25 113L68.5 120.062L78.25 130.656L88 123.594" fill="#F6C0A1"/>
<path d="M101 60.0312H23C21.206 60.0312 19.75 58.4492 19.75 56.5V49.4375C19.75 47.4883 21.206 45.9062 23 45.9062H101C102.794 45.9062 104.25 47.4883 104.25 49.4375V56.5C104.25 58.4492 102.794 60.0312 101 60.0312Z" fill="#74A2D9"/>
<path d="M42.5 44.0417C36.5168 40.1609 32.75 34.525 32.75 28.25C32.75 16.5474 45.8442 7.0625 62 7.0625C78.1558 7.0625 91.25 16.5474 91.25 28.25C91.25 34.525 87.4832 40.1609 81.5 44.0417" fill="#CA6B4A"/>
<path d="M62 21.1875C60.0597 27.5155 54.6095 31.7812 48.4735 31.7812H42.5V42.375C42.5 54.0776 51.2295 63.5625 62 63.5625C72.7705 63.5625 81.5 54.0776 81.5 42.375V31.7812H75.5265C69.3905 31.7812 63.9403 27.5155 62 21.1875Z" fill="#F8D4BF"/>
</svg>
