<svg width="15" height="15" viewBox="0 0 15 15" fill="none" xmlns="http://www.w3.org/2000/svg">
<path d="M8.94486 7.50317L3.3334 1.89146C3.17889 1.73732 3.09389 1.53122 3.09389 1.31146C3.09389 1.09159 3.17889 0.88561 3.3334 0.73122L3.82511 0.239756C3.97938 0.0851219 4.1856 0 4.40535 0C4.62511 0 4.83108 0.0851219 4.98547 0.239756L11.6668 6.92098C11.8218 7.07585 11.9067 7.2828 11.9061 7.5028C11.9067 7.72378 11.8219 7.93049 11.6668 8.08549L4.99169 14.7602C4.8373 14.9149 4.63133 15 4.41145 15C4.19169 15 3.98572 14.9149 3.83121 14.7602L3.33962 14.2688C3.01974 13.9489 3.01974 13.4282 3.33962 13.1084L8.94486 7.50317Z"/>
</svg>
