<svg width="45" height="45" viewBox="0 0 45 45" fill="none" xmlns="http://www.w3.org/2000/svg">
<path d="M42.1154 8.07688H2.88466C1.29111 8.07688 0 6.78576 0 5.19231C0 3.59885 1.29111 2.30765 2.88466 2.30765H42.1154C43.7089 2.30765 45 3.59876 45 5.19231C45 6.78585 43.7089 8.07688 42.1154 8.07688Z" fill="#FF485A"/>
<path d="M25.9616 25.3846H2.88466C1.29111 25.3846 0 24.0934 0 22.5C0 20.9065 1.29111 19.6153 2.88466 19.6153H25.9616C27.555 19.6153 28.8462 20.9064 28.8462 22.5C28.8462 24.0935 27.555 25.3846 25.9616 25.3846Z" fill="#FF485A"/>
<path d="M42.1154 25.3846H37.5C35.9066 25.3846 34.6154 24.0935 34.6154 22.5C34.6154 20.9064 35.9065 19.6153 37.5 19.6153H42.1154C43.7089 19.6153 45 20.9064 45 22.5C45 24.0935 43.7089 25.3846 42.1154 25.3846Z" fill="#FFBBC0"/>
<path d="M42.1154 42.6923H2.88466C1.29111 42.6923 0 41.4011 0 39.8077C0 38.2142 1.29111 36.923 2.88466 36.923H42.1154C43.7089 36.923 45 38.2141 45 39.8077C45 41.4011 43.7089 42.6923 42.1154 42.6923Z" fill="#FF485A"/>
</svg>
