<svg width="40" height="40" viewBox="0 0 40 40" fill="none" xmlns="http://www.w3.org/2000/svg">
<g clip-path="url(#clip0)">
<path d="M13.0215 12.0605L9.70734 8.74634L13.0215 5.43182C13.9368 4.5166 15.4208 4.5166 16.3358 5.43182C17.2513 6.34705 17.2513 7.83112 16.3358 8.74634L13.0215 12.0605Z" fill="#3AAAFF"/>
<path d="M31.2503 30.289L27.9361 26.9748L31.2503 23.6603C32.1655 22.7451 33.6493 22.7451 34.5645 23.6603C35.4797 24.5758 35.4797 26.0596 34.5645 26.9748L31.2503 30.289Z" fill="#0095FF"/>
<path d="M8.90198 5.71747C6.93177 4.6695 4.61762 4.71955 2.71058 5.85175C2.38373 6.04584 2.17164 6.38581 2.14081 6.76423C2.11243 7.10816 2.23786 7.44568 2.47986 7.68769C2.50428 7.7118 2.5293 7.73529 2.55677 7.75818L17.2791 20.0766L23.4201 13.4308L8.90198 5.71747Z" fill="#25D9F8"/>
<path d="M34.2792 31.0944L26.7078 16.8423L20.2536 23.1168L32.2385 37.4396C32.261 37.467 32.2845 37.4921 32.3087 37.5165C32.5507 37.7582 32.8882 37.8839 33.2321 37.8555C33.6105 37.8247 33.9505 37.6129 34.1446 37.2858C35.2768 35.3787 35.3268 33.0646 34.2792 31.0944Z" fill="#00C0F1"/>
<path d="M38.5207 7.70996L13.0763 31.1838L15.1854 35.918C15.584 36.8085 15.3963 37.8632 14.7167 38.5428L13.5918 39.6442C13.0528 40.2066 12.1388 40.0659 11.7638 39.4333L7.52214 32.4728L0.561687 28.2309C-0.0944412 27.8326 -0.18813 26.9421 0.35081 26.4032L1.45219 25.2783C2.13182 24.5987 3.1865 24.411 4.07701 24.8096L8.81089 26.9186L32.2872 1.47644C33.1307 0.515442 34.326 0 35.5211 0C36.646 0 37.7474 0.421753 38.6614 1.33575C40.5831 3.25745 40.349 6.09314 38.5207 7.70996Z" fill="#EDE9E8"/>
<path d="M38.5199 7.70996L13.0756 31.1838L15.1846 35.918C15.5832 36.8085 15.3955 37.8632 14.7159 38.5428L13.591 39.6442C13.0521 40.2066 12.1381 40.0659 11.763 39.4333L7.52136 32.4728L38.6606 1.33576C40.5823 3.25745 40.3482 6.09314 38.5199 7.70996Z" fill="#D2C5C2"/>
<path d="M9.888 31.2775C9.888 31.5823 9.79431 31.8869 9.56024 32.0978L6.2323 35.4257C5.78705 35.871 5.03723 35.871 4.56848 35.4257C4.12323 34.957 4.12323 34.2072 4.56848 33.7616L7.89612 30.434C8.34137 29.9887 9.09149 29.9887 9.56024 30.434C9.79431 30.6683 9.888 30.9729 9.888 31.2775Z" fill="#25D9F8"/>
<path d="M9.888 31.2775C9.888 31.5823 9.79431 31.8869 9.56024 32.0978L6.2323 35.4257C5.78705 35.871 5.03723 35.871 4.56848 35.4257L9.56024 30.434C9.79431 30.6683 9.888 30.9729 9.888 31.2775Z" fill="#00C0F1"/>
</g>
<defs>
<clipPath id="clip0">
<path d="M0 0H40V40H0V0Z" fill="white"/>
</clipPath>
</defs>
</svg>
