<svg width="50" height="50" viewBox="0 0 50 50" fill="none" xmlns="http://www.w3.org/2000/svg">
<g clip-path="url(#clip0)">
<path d="M10.3448 2.58624H8.6207V12.069H10.3448V2.58624Z" fill="#75462E"/>
<path d="M17.2414 2.58624H15.5173V12.069H17.2414V2.58624Z" fill="#75462E"/>
<path d="M10.3448 2.58624H8.6207V5.17247H10.3448V2.58624Z" fill="#5E3825"/>
<path d="M17.2414 2.58624H15.5173V5.17247H17.2414V2.58624Z" fill="#5E3825"/>
<path d="M7.75859 0H18.1034C19.056 0 19.8275 0.771582 19.8275 1.72412C19.8275 2.67666 19.056 3.44824 18.1034 3.44824H7.75859C6.80605 3.44824 6.03447 2.67666 6.03447 1.72412C6.03447 0.771582 6.80605 0 7.75859 0Z" fill="#4398D1"/>
<path d="M3.44824 11.2069H22.4138C24.3181 11.2069 25.862 12.7509 25.862 14.6552V42.2414C25.862 44.1457 24.3181 45.6897 22.4138 45.6897H3.44824C1.54395 45.6897 0 44.1457 0 42.2414V14.6552C0 12.7509 1.54395 11.2069 3.44824 11.2069Z" fill="#4398D1"/>
<path d="M23.3 11.3362C19.6268 30.4775 7.16211 38.8095 0 42.0836V42.2413C0 44.1456 1.54395 45.6896 3.44824 45.6896H22.4138C24.3181 45.6896 25.862 44.1456 25.862 42.2413V14.6552C25.8595 13.0957 24.8077 11.7336 23.3 11.3362Z" fill="#3E8CC7"/>
<path d="M3.01728 50C4.20755 50 5.17246 49.0351 5.17246 47.8448C5.17246 46.6546 4.20755 45.6897 3.01728 45.6897C1.82701 45.6897 0.862106 46.6546 0.862106 47.8448C0.862106 49.0351 1.82701 50 3.01728 50Z" fill="#3E8CC7"/>
<path d="M11.2068 15.5173H9.48271V40.5173H11.2068V15.5173Z" fill="#126099"/>
<path d="M6.03447 15.5173H4.31035V40.5173H6.03447V15.5173Z" fill="#126099"/>
<path d="M16.3793 15.5173H14.6552V40.5173H16.3793V15.5173Z" fill="#126099"/>
<path d="M21.5517 15.5173H19.8275V40.5173H21.5517V15.5173Z" fill="#126099"/>
<path d="M22.8448 50C24.0351 50 25 49.0351 25 47.8448C25 46.6546 24.0351 45.6897 22.8448 45.6897C21.6546 45.6897 20.6897 46.6546 20.6897 47.8448C20.6897 49.0351 21.6546 50 22.8448 50Z" fill="#3E8CC7"/>
<path d="M50 25V42.2414C50 44.1457 48.4561 45.6897 46.5518 45.6897H16.3793C14.475 45.6897 12.9311 44.1457 12.9311 42.2414V25C12.9311 23.0957 14.475 21.5518 16.3793 21.5518H46.5518C48.4561 21.5518 50 23.0957 50 25Z" fill="#DE4C3C"/>
<path d="M38.7931 21.5518V18.1035C38.7931 16.1992 37.2491 14.6553 35.3448 14.6553H27.5862C25.6819 14.6553 24.138 16.1992 24.138 18.1035V21.5518H27.5862V18.1035H35.3448V21.5518H38.7931Z" fill="#75462E"/>
<path d="M15.9482 50C17.1385 50 18.1034 49.0351 18.1034 47.8448C18.1034 46.6546 17.1385 45.6897 15.9482 45.6897C14.758 45.6897 13.7931 46.6546 13.7931 47.8448C13.7931 49.0351 14.758 50 15.9482 50Z" fill="#DE4C3C"/>
<path d="M46.9827 50C48.173 50 49.1379 49.0351 49.1379 47.8448C49.1379 46.6546 48.173 45.6897 46.9827 45.6897C45.7924 45.6897 44.8275 46.6546 44.8275 47.8448C44.8275 49.0351 45.7924 50 46.9827 50Z" fill="#DE4C3C"/>
<path d="M7.75859 23.2759L0 26.7241V21.5517L6.03447 18.9655L7.75859 23.2759Z" fill="#87CED9"/>
<path d="M48.5991 22.2414C42.3793 34.6207 24.9896 42.4345 16.2931 45.681C16.3224 45.681 16.35 45.6896 16.3793 45.6896H46.5518C48.4561 45.6896 50 44.1457 50 42.2414V25C49.9975 23.9103 49.4775 22.8862 48.5991 22.2414Z" fill="#CF4737"/>
<path d="M25.8621 31.0345L30.1725 25L34.4827 31.0345H25.8621Z" fill="#3E8CC7"/>
<path d="M20.6897 21.5518H17.2414V45.6897H20.6897V21.5518Z" fill="#75462E"/>
<path d="M45.6896 21.5518H42.2414V45.6897H45.6896V21.5518Z" fill="#75462E"/>
<path d="M43.3645 33.9026C41.1029 33.1623 38.7895 34.0288 38.1973 35.8378C37.6051 37.6469 38.9585 39.7136 41.2201 40.4539C43.4817 41.1942 45.7951 40.3278 46.3873 38.5187C46.9795 36.7096 45.6261 34.6429 43.3645 33.9026Z" fill="#87CED9"/>
<path d="M12.9311 29.3104V33.6207L21.5518 38.7931L23.2759 35.3448L12.9311 29.3104Z" fill="#FDB62F"/>
<path d="M45.0655 34.8129C43.4716 36.6836 41.5043 38.2 39.2896 39.2654C39.8439 39.799 40.512 40.2008 41.2439 40.4396C43.5068 41.1801 45.8207 40.3137 46.4164 38.5033C46.7732 37.1121 46.2362 35.6448 45.0655 34.8129Z" fill="#71C4D1"/>
</g>
<defs>
<clipPath id="clip0">
<path d="M0 0H50V50H0V0Z" fill="white"/>
</clipPath>
</defs>
</svg>
